<svg width="465" height="193" viewBox="0 0 465 193" fill="none" xmlns="http://www.w3.org/2000/svg">
<path d="M14 79H386" stroke="#FD4370" stroke-width="13"/>
<path d="M15.048 28.744V79H4.968V28.744H15.048ZM22.4151 58.912C22.4151 54.88 23.2071 51.304 24.7911 48.184C26.4231 45.064 28.6071 42.664 31.3431 40.984C34.1271 39.304 37.2231 38.464 40.6311 38.464C43.6071 38.464 46.1991 39.064 48.4071 40.264C50.6631 41.464 52.4631 42.976 53.8071 44.8V39.112H63.9591V79H53.8071V73.168C52.5111 75.04 50.7111 76.6 48.4071 77.848C46.1511 79.048 43.5351 79.648 40.5591 79.648C37.1991 79.648 34.1271 78.784 31.3431 77.056C28.6071 75.328 26.4231 72.904 24.7911 69.784C23.2071 66.616 22.4151 62.992 22.4151 58.912ZM53.8071 59.056C53.8071 56.608 53.3271 54.52 52.3671 52.792C51.4071 51.016 50.1111 49.672 48.4791 48.76C46.8471 47.8 45.0951 47.32 43.2231 47.32C41.3511 47.32 39.6231 47.776 38.0391 48.688C36.4551 49.6 35.1591 50.944 34.1511 52.72C33.1911 54.448 32.7111 56.512 32.7111 58.912C32.7111 61.312 33.1911 63.424 34.1511 65.248C35.1591 67.024 36.4551 68.392 38.0391 69.352C39.6711 70.312 41.3991 70.792 43.2231 70.792C45.0951 70.792 46.8471 70.336 48.4791 69.424C50.1111 68.464 51.4071 67.12 52.3671 65.392C53.3271 63.616 53.8071 61.504 53.8071 59.056ZM95.9079 38.536C100.66 38.536 104.5 40.048 107.428 43.072C110.356 46.048 111.82 50.224 111.82 55.6V79H101.74V56.968C101.74 53.8 100.948 51.376 99.3639 49.696C97.7799 47.968 95.6199 47.104 92.8839 47.104C90.0999 47.104 87.8919 47.968 86.2599 49.696C84.6759 51.376 83.8839 53.8 83.8839 56.968V79H73.8039V39.112H83.8839V44.08C85.2279 42.352 86.9319 41.008 88.9959 40.048C91.1079 39.04 93.4119 38.536 95.9079 38.536ZM193.354 28.744V79H183.274V46.312L169.81 79H162.178L148.642 46.312V79H138.562V28.744H150.01L165.994 66.112L181.978 28.744H193.354ZM200.728 58.912C200.728 54.88 201.52 51.304 203.104 48.184C204.736 45.064 206.92 42.664 209.656 40.984C212.44 39.304 215.536 38.464 218.944 38.464C221.92 38.464 224.512 39.064 226.72 40.264C228.976 41.464 230.776 42.976 232.12 44.8V39.112H242.272V79H232.12V73.168C230.824 75.04 229.024 76.6 226.72 77.848C224.464 79.048 221.848 79.648 218.872 79.648C215.512 79.648 212.44 78.784 209.656 77.056C206.92 75.328 204.736 72.904 203.104 69.784C201.52 66.616 200.728 62.992 200.728 58.912ZM232.12 59.056C232.12 56.608 231.64 54.52 230.68 52.792C229.72 51.016 228.424 49.672 226.792 48.76C225.16 47.8 223.408 47.32 221.536 47.32C219.664 47.32 217.936 47.776 216.352 48.688C214.768 49.6 213.472 50.944 212.464 52.72C211.504 54.448 211.024 56.512 211.024 58.912C211.024 61.312 211.504 63.424 212.464 65.248C213.472 67.024 214.768 68.392 216.352 69.352C217.984 70.312 219.712 70.792 221.536 70.792C223.408 70.792 225.16 70.336 226.792 69.424C228.424 68.464 229.72 67.12 230.68 65.392C231.64 63.616 232.12 61.504 232.12 59.056ZM267.38 79.648C264.116 79.648 261.188 79.072 258.596 77.92C256.004 76.72 253.94 75.112 252.404 73.096C250.916 71.08 250.1 68.848 249.956 66.4H260.108C260.3 67.936 261.044 69.208 262.34 70.216C263.684 71.224 265.34 71.728 267.308 71.728C269.228 71.728 270.716 71.344 271.772 70.576C272.876 69.808 273.428 68.824 273.428 67.624C273.428 66.328 272.756 65.368 271.412 64.744C270.116 64.072 268.028 63.352 265.148 62.584C262.172 61.864 259.724 61.12 257.804 60.352C255.932 59.584 254.3 58.408 252.908 56.824C251.564 55.24 250.892 53.104 250.892 50.416C250.892 48.208 251.516 46.192 252.764 44.368C254.06 42.544 255.884 41.104 258.236 40.048C260.636 38.992 263.444 38.464 266.66 38.464C271.412 38.464 275.204 39.664 278.036 42.064C280.868 44.416 282.428 47.608 282.716 51.64H273.068C272.924 50.056 272.252 48.808 271.052 47.896C269.9 46.936 268.34 46.456 266.372 46.456C264.548 46.456 263.132 46.792 262.124 47.464C261.164 48.136 260.684 49.072 260.684 50.272C260.684 51.616 261.356 52.648 262.7 53.368C264.044 54.04 266.132 54.736 268.964 55.456C271.844 56.176 274.22 56.92 276.092 57.688C277.964 58.456 279.572 59.656 280.916 61.288C282.308 62.872 283.028 64.984 283.076 67.624C283.076 69.928 282.428 71.992 281.132 73.816C279.884 75.64 278.06 77.08 275.66 78.136C273.308 79.144 270.548 79.648 267.38 79.648ZM309.063 79.648C305.223 79.648 301.767 78.808 298.695 77.128C295.623 75.4 293.199 72.976 291.423 69.856C289.695 66.736 288.831 63.136 288.831 59.056C288.831 54.976 289.719 51.376 291.495 48.256C293.319 45.136 295.791 42.736 298.911 41.056C302.031 39.328 305.511 38.464 309.351 38.464C313.191 38.464 316.671 39.328 319.791 41.056C322.911 42.736 325.359 45.136 327.135 48.256C328.959 51.376 329.871 54.976 329.871 59.056C329.871 63.136 328.935 66.736 327.063 69.856C325.239 72.976 322.743 75.4 319.575 77.128C316.455 78.808 312.951 79.648 309.063 79.648ZM309.063 70.864C310.887 70.864 312.591 70.432 314.175 69.568C315.807 68.656 317.103 67.312 318.063 65.536C319.023 63.76 319.503 61.6 319.503 59.056C319.503 55.264 318.495 52.36 316.479 50.344C314.511 48.28 312.087 47.248 309.207 47.248C306.327 47.248 303.903 48.28 301.935 50.344C300.015 52.36 299.055 55.264 299.055 59.056C299.055 62.848 299.991 65.776 301.863 67.84C303.783 69.856 306.183 70.864 309.063 70.864ZM359.369 38.536C364.121 38.536 367.961 40.048 370.889 43.072C373.817 46.048 375.281 50.224 375.281 55.6V79H365.201V56.968C365.201 53.8 364.409 51.376 362.825 49.696C361.241 47.968 359.081 47.104 356.345 47.104C353.561 47.104 351.353 47.968 349.721 49.696C348.137 51.376 347.345 53.8 347.345 56.968V79H337.265V39.112H347.345V44.08C348.689 42.352 350.393 41.008 352.457 40.048C354.569 39.04 356.873 38.536 359.369 38.536Z" fill="#FAFAFA"/>
</svg>
